REM DIRINDEX 1\2,1\3,1\4,1\5,1\6
REM DIRNAME "folder01","folder02","folder03","folder04","folder05","folder06"
TITLE ""
FILE "Disc4Track43.mp3" MP3
  TRACK 01 AUDIO
    TITLE "2:cjc161_07403"
    INDEX 01 00:00:00
  TRACK 02 AUDIO
    TITLE "0:"
    INDEX 01 00:03:62
  TRACK 03 AUDIO
    TITLE "3:cjc161_07404"
    INDEX 01 00:04:04
  TRACK 04 AUDIO
    TITLE "4:cjc161_07405"
    INDEX 01 00:05:25
  TRACK 05 AUDIO
    TITLE "5:cjc161_07406"
    INDEX 01 00:07:01
  TRACK 06 AUDIO
    TITLE "6:cjc161_07407"
    INDEX 01 00:08:22
  TRACK 07 AUDIO
    TITLE "0:"
    INDEX 01 00:12:17
  TRACK 08 AUDIO
    TITLE "3:cjc161_07408"
    INDEX 01 00:12:49
  TRACK 09 AUDIO
    TITLE "4:cjc161_07409"
    INDEX 01 00:13:72
  TRACK 10 AUDIO
    TITLE "5:cjc161_07410"
    INDEX 01 00:14:73
  TRACK 11 AUDIO
    TITLE "6:cjc161_07411"
    INDEX 01 00:16:19
  TRACK 12 AUDIO
    TITLE "0:"
    INDEX 01 00:18:06
  TRACK 13 AUDIO
    TITLE "3:cjc161_07412"
    INDEX 01 00:18:38
  TRACK 14 AUDIO
    TITLE "4:cjc161_07413"
    INDEX 01 00:20:03
  TRACK 15 AUDIO
    TITLE "5:cjc161_07414"
    INDEX 01 00:22:22
  TRACK 16 AUDIO
    TITLE "0:"
    INDEX 01 00:23:62
  TRACK 17 AUDIO
    TITLE "3:cjc161_07415"
    INDEX 01 00:24:26
  TRACK 18 AUDIO
    TITLE "4:cjc161_07416"
    INDEX 01 00:25:57
  TRACK 19 AUDIO
    TITLE "5:cjc161_07417"
    INDEX 01 00:27:64
  TRACK 20 AUDIO
    TITLE "6:cjc161_07418"
    INDEX 01 00:29:16
  TRACK 21 AUDIO
    TITLE "0:"
    INDEX 01 00:31:19
  TRACK 22 AUDIO
    TITLE "3:cjc161_07419"
    INDEX 01 00:31:56
  TRACK 23 AUDIO
    TITLE "4:cjc161_07420"
    INDEX 01 00:33:12
  TRACK 24 AUDIO
    TITLE "5:cjc161_07421"
    INDEX 01 00:34:74
  TRACK 25 AUDIO
    TITLE "6:cjc161_07422"
    INDEX 01 00:36:28
  TRACK 26 AUDIO
    TITLE "0:"
    INDEX 01 00:38:09
  TRACK 27 AUDIO
    TITLE "3:cjc161_07423"
    INDEX 01 00:38:42
  TRACK 28 AUDIO
    TITLE "4:cjc161_07424"
    INDEX 01 00:39:71
  TRACK 29 AUDIO
    TITLE "5:cjc161_07425"
    INDEX 01 00:40:67
  TRACK 30 AUDIO
    TITLE "6:cjc161_07426"
    INDEX 01 00:42:20
  TRACK 31 AUDIO
    TITLE "0:"
    INDEX 01 00:44:21
  TRACK 32 AUDIO
    TITLE "3:cjc161_07427"
    INDEX 01 00:44:53
  TRACK 33 AUDIO
    TITLE "4:cjc161_07428"
    INDEX 01 00:46:03
  TRACK 34 AUDIO
    TITLE "5:cjc161_07429"
    INDEX 01 00:46:75
  TRACK 35 AUDIO
    TITLE "0:"
    INDEX 01 00:48:27
  TRACK 36 AUDIO
    TITLE "3:cjc161_07430"
    INDEX 01 00:48:66
  TRACK 37 AUDIO
    TITLE "4:cjc161_07431"
    INDEX 01 00:50:10
  TRACK 38 AUDIO
    TITLE "5:cjc161_07432"
    INDEX 01 00:52:13
  TRACK 39 AUDIO
    TITLE "6:cjc161_07433"
    INDEX 01 00:53:30
  TRACK 40 AUDIO
    TITLE "0:"
    INDEX 01 00:57:22
  TRACK 41 AUDIO
    TITLE "3:cjc161_07434"
    INDEX 01 00:57:59
  TRACK 42 AUDIO
    TITLE "4:cjc161_07435"
    INDEX 01 00:59:01
  TRACK 43 AUDIO
    TITLE "5:cjc161_07436"
    INDEX 01 01:00:09
  TRACK 44 AUDIO
    TITLE "0:"
    INDEX 01 01:01:28
  TRACK 45 AUDIO
    TITLE "3:cjc161_07437"
    INDEX 01 01:01:71
  TRACK 46 AUDIO
    TITLE "4:cjc161_07438"
    INDEX 01 01:03:17
  TRACK 47 AUDIO
    TITLE "5:cjc161_07439"
    INDEX 01 01:05:35
  TRACK 48 AUDIO
    TITLE "6:cjc161_07440"
    INDEX 01 01:06:56
  TRACK 49 AUDIO
    TITLE "0:"
    INDEX 01 01:10:01
  TRACK 50 AUDIO
    TITLE "3:cjc161_07441"
    INDEX 01 01:10:32
  TRACK 51 AUDIO
    TITLE "4:cjc161_07442"
    INDEX 01 01:11:55
  TRACK 52 AUDIO
    TITLE "5:cjc161_07443"
    INDEX 01 01:12:72
  TRACK 53 AUDIO
    TITLE "0:"
    INDEX 01 01:14:22
  TRACK 54 AUDIO
    TITLE "3:cjc161_07444"
    INDEX 01 01:14:60
  TRACK 55 AUDIO
    TITLE "4:cjc161_07445"
    INDEX 01 01:16:12
  TRACK 56 AUDIO
    TITLE "5:cjc161_07446"
    INDEX 01 01:17:58
  TRACK 57 AUDIO
    TITLE "0:"
    INDEX 01 01:19:10
  TRACK 58 AUDIO
    TITLE "3:cjc161_07447"
    INDEX 01 01:19:49
  TRACK 59 AUDIO
    TITLE "4:cjc161_07448"
    INDEX 01 01:21:01
  TRACK 60 AUDIO
    TITLE "5:cjc161_07449"
    INDEX 01 01:22:22
  TRACK 61 AUDIO
    TITLE "0:"
    INDEX 01 01:23:49
